<svg width="12" height="13" viewBox="0 0 12 13" fill="none" xmlns="http://www.w3.org/2000/svg">
<path fill-rule="evenodd" clip-rule="evenodd" d="M11.4972 11.2374L10.7103 2.85521C10.6934 2.66912 10.5276 2.52822 10.3337 2.52822H8.71486C8.69237 1.12986 7.4839 0 6 0C4.51609 0 3.30762 1.12986 3.28513 2.52822H1.66632C1.46959 2.52822 1.30659 2.66912 1.28973 2.85521L0.50281 11.2374C0.50281 11.2428 0.502108 11.2481 0.501405 11.2534C0.500703 11.2587 0.5 11.264 0.5 11.2693C0.5 12.2237 1.42463 13 2.56285 13H9.43713C10.5754 13 11.5 12.2237 11.5 11.2693C11.5 11.2587 11.5 11.2481 11.4972 11.2374ZM6.00023 0.717736C7.06541 0.717736 7.9338 1.52592 7.95629 2.52817H4.04418C4.06666 1.52592 4.93508 0.717736 6.00023 0.717736Z" fill="white"/>
</svg>
