<svg width="168" height="24" viewBox="0 0 168 24" fill="none" xmlns="http://www.w3.org/2000/svg">
<path d="M39 2.30973C39.1855 2.24779 39.4824 2.18584 39.8906 2.12389C40.2988 2.0413 40.7163 2 41.1431 2C41.5513 2 41.9131 2.03097 42.2285 2.09292C42.5625 2.15487 42.8408 2.27876 43.0635 2.4646C43.2862 2.65044 43.4531 2.90855 43.5645 3.23894C43.6758 3.54867 43.7315 3.96165 43.7315 4.47788V7.51327C44.1953 7.30678 44.6314 7.16224 45.0396 7.07965C45.4663 6.99705 45.9302 6.95575 46.4312 6.95575C47.3218 6.95575 48.1661 7.13127 48.9639 7.4823C49.7618 7.83333 50.4669 8.34956 51.0792 9.03097C51.6915 9.69174 52.1739 10.5177 52.5264 11.5088C52.879 12.5 53.0553 13.646 53.0553 14.9469C53.0553 16.2891 52.8697 17.4661 52.4986 18.4779C52.1461 19.469 51.6451 20.295 50.9957 20.9558C50.3463 21.6165 49.5484 22.1224 48.6021 22.4734C47.6744 22.8038 46.6446 22.969 45.5127 22.969C44.2881 22.969 43.249 22.8038 42.3955 22.4734C41.542 22.1637 40.8184 21.7714 40.2246 21.2965C39.4082 20.6563 39 19.8304 39 18.8186V2.30973ZM45.5127 18.8186C46.3663 18.8186 47.0249 18.4985 47.4888 17.8584C47.9712 17.1976 48.2125 16.2271 48.2125 14.9469C48.2125 13.646 47.9712 12.6755 47.4888 12.0354C47.0064 11.3953 46.357 11.0752 45.5406 11.0752C45.1695 11.0752 44.8448 11.1165 44.5664 11.1991C44.3067 11.2817 44.0191 11.4056 43.7036 11.5708V18.323C43.9077 18.4676 44.149 18.5914 44.4273 18.6947C44.7242 18.7773 45.086 18.8186 45.5127 18.8186Z" fill="#DA6551"/>
<path d="M69.3606 14.9469C69.3606 16.2271 69.1843 17.3732 68.8318 18.385C68.4792 19.3761 67.9782 20.2124 67.3288 20.8938C66.698 21.5752 65.9372 22.0914 65.0466 22.4425C64.1559 22.7935 63.1633 22.969 62.0685 22.969C60.9738 22.969 59.9811 22.7832 59.0905 22.4115C58.1999 22.0398 57.4298 21.5133 56.7804 20.8319C56.1496 20.1298 55.6579 19.2832 55.3053 18.292C54.9528 17.3009 54.7765 16.1858 54.7765 14.9469C54.7765 13.7286 54.9528 12.6239 55.3053 11.6327C55.6579 10.6416 56.1496 9.80531 56.7804 9.12389C57.4298 8.42183 58.1999 7.88496 59.0905 7.51327C59.9811 7.14159 60.9738 6.95575 62.0685 6.95575C63.1633 6.95575 64.1559 7.15192 65.0466 7.54425C65.9372 7.91593 66.698 8.4528 67.3288 9.15487C67.9782 9.83628 68.4792 10.6726 68.8318 11.6637C69.1843 12.6549 69.3606 13.7493 69.3606 14.9469ZM59.6193 14.9469C59.6193 16.2065 59.8327 17.177 60.2594 17.8584C60.7048 18.5192 61.3171 18.8496 62.0964 18.8496C62.8757 18.8496 63.4694 18.5088 63.8776 17.8274C64.3044 17.146 64.5178 16.1858 64.5178 14.9469C64.5178 13.708 64.3044 12.7581 63.8776 12.0973C63.4509 11.4159 62.8478 11.0752 62.0685 11.0752C61.2892 11.0752 60.6862 11.4159 60.2594 12.0973C59.8327 12.7581 59.6193 13.708 59.6193 14.9469Z" fill="#DA6551"/>
<path d="M85.6685 14.9469C85.6685 16.2271 85.4922 17.3732 85.1397 18.385C84.7871 19.3761 84.2861 20.2124 83.6367 20.8938C83.0059 21.5752 82.2451 22.0914 81.3545 22.4425C80.4639 22.7935 79.4712 22.969 78.3764 22.969C77.2817 22.969 76.289 22.7832 75.3984 22.4115C74.5078 22.0398 73.7378 21.5133 73.0883 20.8319C72.4575 20.1298 71.9658 19.2832 71.6132 18.292C71.2607 17.3009 71.0844 16.1858 71.0844 14.9469C71.0844 13.7286 71.2607 12.6239 71.6132 11.6327C71.9658 10.6416 72.4575 9.80531 73.0883 9.12389C73.7378 8.42183 74.5078 7.88496 75.3984 7.51327C76.289 7.14159 77.2817 6.95575 78.3764 6.95575C79.4712 6.95575 80.4639 7.15192 81.3545 7.54425C82.2451 7.91593 83.0059 8.4528 83.6367 9.15487C84.2861 9.83628 84.7871 10.6726 85.1397 11.6637C85.4922 12.6549 85.6685 13.7493 85.6685 14.9469ZM75.9272 14.9469C75.9272 16.2065 76.1406 17.177 76.5674 17.8584C77.0127 18.5192 77.625 18.8496 78.4043 18.8496C79.1836 18.8496 79.7773 18.5088 80.1855 17.8274C80.6123 17.146 80.8257 16.1858 80.8257 14.9469C80.8257 13.708 80.6123 12.7581 80.1855 12.0973C79.7588 11.4159 79.1558 11.0752 78.3764 11.0752C77.5971 11.0752 76.9941 11.4159 76.5674 12.0973C76.1406 12.7581 75.9272 13.708 75.9272 14.9469Z" fill="#DA6551"/>
<path d="M101.197 19.7478C101.104 20.7183 100.845 21.4617 100.418 21.9779C100.01 22.4941 99.4066 22.7522 98.6087 22.7522C98.015 22.7522 97.4861 22.5973 97.0223 22.2876C96.5584 21.9572 96.0574 21.41 95.5193 20.646L92.764 16.8053V22.4425C92.5598 22.4838 92.2537 22.5354 91.8455 22.5973C91.4558 22.6799 91.0569 22.7212 90.6487 22.7212C90.2405 22.7212 89.8694 22.6903 89.5354 22.6283C89.22 22.5664 88.9509 22.4425 88.7283 22.2566C88.5056 22.0708 88.3294 21.823 88.1995 21.5133C88.0881 21.1829 88.0325 20.7596 88.0325 20.2434V2.30973C88.2366 2.24779 88.5335 2.18584 88.9231 2.12389C89.3313 2.0413 89.7395 2 90.1477 2C90.5559 2 90.9178 2.03097 91.2332 2.09292C91.5672 2.15487 91.8455 2.27876 92.0681 2.4646C92.2908 2.65044 92.4578 2.90855 92.5691 3.23894C92.699 3.54867 92.764 3.96165 92.764 4.47788V12.6549L97.5511 7.20354C98.5159 7.20354 99.286 7.441 99.8612 7.91593C100.455 8.39085 100.752 8.98967 100.752 9.71239C100.752 10.0221 100.705 10.3112 100.613 10.5796C100.52 10.8274 100.371 11.0855 100.167 11.354C99.9818 11.6224 99.7313 11.9115 99.4158 12.2212C99.119 12.5103 98.7664 12.851 98.3582 13.2434L96.744 14.792L101.197 19.7478Z" fill="#DA6551"/>
<path d="M114.5 17.9823C114.5 19.5516 113.971 20.7802 112.914 21.6681C111.856 22.556 110.297 23 108.238 23C107.458 23 106.735 22.9381 106.067 22.8142C105.399 22.6903 104.824 22.5044 104.341 22.2566C103.877 21.9882 103.506 21.6578 103.228 21.2655C102.968 20.8732 102.838 20.4086 102.838 19.8717C102.838 19.3761 102.931 18.9631 103.117 18.6327C103.302 18.2817 103.525 17.9926 103.785 17.7655C104.323 18.0959 104.935 18.3953 105.622 18.6637C106.327 18.9115 107.134 19.0354 108.043 19.0354C108.618 19.0354 109.054 18.9425 109.351 18.7566C109.666 18.5708 109.824 18.323 109.824 18.0133C109.824 17.7242 109.713 17.497 109.49 17.3319C109.268 17.1667 108.896 17.0324 108.377 16.9292L107.542 16.7434C105.928 16.3923 104.722 15.8451 103.924 15.1018C103.144 14.3378 102.755 13.2537 102.755 11.8496C102.755 11.0855 102.903 10.3938 103.2 9.77434C103.497 9.15487 103.915 8.63864 104.453 8.22566C104.991 7.81268 105.631 7.49262 106.373 7.26549C107.134 7.03835 107.969 6.92478 108.878 6.92478C109.564 6.92478 110.205 6.98672 110.798 7.11062C111.411 7.21386 111.939 7.37906 112.385 7.60619C112.83 7.83333 113.183 8.13274 113.442 8.50442C113.702 8.85546 113.832 9.27876 113.832 9.77434C113.832 10.2493 113.749 10.6622 113.582 11.0133C113.433 11.3437 113.238 11.6224 112.997 11.8496C112.849 11.7463 112.626 11.6431 112.329 11.5398C112.032 11.4159 111.708 11.3127 111.355 11.2301C111.002 11.1268 110.641 11.0442 110.27 10.9823C109.917 10.9204 109.592 10.8894 109.295 10.8894C108.683 10.8894 108.21 10.972 107.876 11.1372C107.542 11.2817 107.375 11.5192 107.375 11.8496C107.375 12.0767 107.468 12.2625 107.653 12.4071C107.839 12.5516 108.191 12.6858 108.711 12.8097L109.574 13.0265C111.355 13.4808 112.617 14.1106 113.359 14.9159C114.12 15.7006 114.5 16.7227 114.5 17.9823Z" fill="#DA6551"/>
<path d="M121.519 17.3009C121.519 17.8378 121.667 18.2198 121.964 18.4469C122.28 18.674 122.716 18.7876 123.272 18.7876C123.551 18.7876 123.838 18.767 124.135 18.7257C124.432 18.6637 124.692 18.5914 124.914 18.5088C125.081 18.736 125.221 18.9941 125.332 19.2832C125.462 19.5516 125.527 19.882 125.527 20.2743C125.527 21.059 125.258 21.6991 124.72 22.1947C124.2 22.6903 123.272 22.9381 121.936 22.9381C120.304 22.9381 119.042 22.5251 118.151 21.6991C117.279 20.8732 116.843 19.531 116.843 17.6726V4.41593C117.047 4.35398 117.335 4.29203 117.706 4.23009C118.096 4.14749 118.504 4.10619 118.931 4.10619C119.747 4.10619 120.378 4.27139 120.823 4.60177C121.287 4.9115 121.519 5.58259 121.519 6.61504V8.59734H125.165C125.276 8.82448 125.378 9.11357 125.471 9.4646C125.582 9.79498 125.638 10.1667 125.638 10.5796C125.638 11.3024 125.49 11.8289 125.193 12.1593C124.914 12.469 124.534 12.6239 124.052 12.6239H121.519V17.3009Z" fill="#DA6551"/>
<path d="M141.768 14.9469C141.768 16.2271 141.591 17.3732 141.239 18.385C140.886 19.3761 140.385 20.2124 139.736 20.8938C139.105 21.5752 138.344 22.0914 137.454 22.4425C136.563 22.7935 135.57 22.969 134.476 22.969C133.381 22.969 132.388 22.7832 131.498 22.4115C130.607 22.0398 129.837 21.5133 129.188 20.8319C128.557 20.1298 128.065 19.2832 127.712 18.292C127.36 17.3009 127.184 16.1858 127.184 14.9469C127.184 13.7286 127.36 12.6239 127.712 11.6327C128.065 10.6416 128.557 9.80531 129.188 9.12389C129.837 8.42183 130.607 7.88496 131.498 7.51327C132.388 7.14159 133.381 6.95575 134.476 6.95575C135.57 6.95575 136.563 7.15192 137.454 7.54425C138.344 7.91593 139.105 8.4528 139.736 9.15487C140.385 9.83628 140.886 10.6726 141.239 11.6637C141.591 12.6549 141.768 13.7493 141.768 14.9469ZM132.026 14.9469C132.026 16.2065 132.24 17.177 132.667 17.8584C133.112 18.5192 133.724 18.8496 134.504 18.8496C135.283 18.8496 135.877 18.5088 136.285 17.8274C136.712 17.146 136.925 16.1858 136.925 14.9469C136.925 13.708 136.712 12.7581 136.285 12.0973C135.858 11.4159 135.255 11.0752 134.476 11.0752C133.696 11.0752 133.093 11.4159 132.667 12.0973C132.24 12.7581 132.026 13.708 132.026 14.9469Z" fill="#DA6551"/>
<path d="M148.808 22.4425C148.622 22.5044 148.325 22.5664 147.917 22.6283C147.527 22.6903 147.119 22.7212 146.692 22.7212C146.284 22.7212 145.913 22.6903 145.579 22.6283C145.264 22.5664 144.995 22.4425 144.772 22.2566C144.549 22.0708 144.373 21.823 144.243 21.5133C144.132 21.1829 144.076 20.7596 144.076 20.2434V10.9513C144.076 10.4764 144.15 10.0737 144.299 9.74336C144.466 9.39233 144.698 9.08259 144.995 8.81416C145.291 8.54572 145.653 8.30826 146.08 8.10177C146.525 7.87463 146.998 7.67847 147.499 7.51327C148 7.34808 148.52 7.22419 149.058 7.14159C149.596 7.03835 150.134 6.98673 150.672 6.98673C151.563 6.98673 152.268 7.18289 152.788 7.57522C153.307 7.9469 153.567 8.56637 153.567 9.43363C153.567 9.72271 153.53 10.0118 153.456 10.3009C153.381 10.5693 153.289 10.8171 153.177 11.0442C152.788 11.0442 152.389 11.0649 151.98 11.1062C151.572 11.1475 151.173 11.2094 150.784 11.292C150.394 11.3746 150.023 11.4676 149.67 11.5708C149.336 11.6534 149.049 11.7566 148.808 11.8805V22.4425Z" fill="#DA6551"/>
<path d="M162.155 22.969C161.061 22.969 160.04 22.8038 159.094 22.4734C158.166 22.1224 157.35 21.6062 156.644 20.9248C155.958 20.2434 155.411 19.3864 155.002 18.354C154.613 17.3215 154.418 16.1136 154.418 14.7301C154.418 13.3673 154.613 12.2006 155.002 11.2301C155.411 10.2389 155.939 9.43363 156.589 8.81416C157.238 8.17404 157.98 7.70944 158.815 7.42035C159.65 7.11062 160.504 6.95575 161.376 6.95575C162.359 6.95575 163.25 7.12094 164.048 7.45133C164.864 7.78171 165.56 8.23599 166.135 8.81416C166.729 9.39233 167.184 10.0841 167.499 10.8894C167.833 11.6947 168 12.5723 168 13.5221C168 14.2242 167.824 14.7611 167.471 15.1327C167.119 15.5044 166.627 15.7419 165.996 15.8451L159.122 16.9911C159.326 17.6726 159.743 18.1888 160.374 18.5398C161.005 18.8702 161.728 19.0354 162.545 19.0354C163.306 19.0354 164.02 18.9322 164.688 18.7257C165.374 18.4985 165.931 18.2404 166.358 17.9513C166.655 18.1578 166.905 18.4469 167.109 18.8186C167.313 19.1903 167.416 19.5826 167.416 19.9956C167.416 20.9248 167.026 21.6165 166.247 22.0708C165.653 22.4218 164.985 22.6593 164.243 22.7832C163.5 22.9071 162.805 22.969 162.155 22.969ZM161.376 10.7965C160.931 10.7965 160.541 10.8791 160.207 11.0442C159.892 11.2094 159.632 11.4263 159.428 11.6947C159.224 11.9425 159.066 12.2316 158.955 12.5619C158.862 12.8717 158.806 13.1917 158.788 13.5221L163.547 12.6549C163.491 12.2419 163.287 11.8289 162.935 11.4159C162.582 11.0029 162.062 10.7965 161.376 10.7965Z" fill="#DA6551"/>
<path d="M3.51831 2.83221C3.51769 2.83221 3.51699 2.83221 3.51637 2.83221C3.29884 2.83221 3.09424 2.9207 2.93975 3.08151C2.78355 3.24409 2.69751 3.46058 2.69751 3.69105V16.5691C2.69751 17.0413 3.06714 17.4264 3.52156 17.4277C5.43731 17.4324 8.64694 17.8491 10.8611 20.2669V6.78972C10.8611 6.62964 10.822 6.47926 10.748 6.35481C8.93069 3.3009 5.43839 2.8369 3.51831 2.83221Z" fill="#DB8070"/>
<path d="M20.3025 16.5691V3.69098C20.3025 3.46052 20.2164 3.24403 20.0602 3.08145C19.9057 2.92064 19.701 2.83215 19.4837 2.83215C19.483 2.83215 19.4823 2.83215 19.4817 2.83215C17.5617 2.83692 14.0694 3.30092 12.252 6.35483C12.178 6.47928 12.1389 6.62966 12.1389 6.78974V20.2669C14.3531 17.849 17.5628 17.4324 19.4785 17.4276C19.9328 17.4264 20.3025 17.0413 20.3025 16.5691Z" fill="#DB8070"/>
<path d="M22.1771 5.80212H21.5803V16.5691C21.5803 17.7748 20.6389 18.758 19.4816 18.761C17.8566 18.7651 15.1773 19.0966 13.2798 20.9707C16.5616 20.1322 20.0212 20.6772 21.9929 21.1461C22.239 21.2046 22.4934 21.1442 22.6907 20.9801C22.8872 20.8165 23 20.5719 23 20.3093V6.66079C23.0001 6.18734 22.6308 5.80212 22.1771 5.80212Z" fill="#DA6551"/>
<path d="M1.41965 16.5691V5.80212H0.822892C0.36924 5.80212 0 6.18734 0 6.66079V20.3091C0 20.5717 0.112755 20.8162 0.309301 20.9799C0.506389 21.1438 0.760551 21.2045 1.00712 21.1458C2.97878 20.6769 6.43847 20.1319 9.72013 20.9704C7.82266 19.0965 5.14334 18.765 3.51839 18.761C2.36119 18.758 1.41965 17.7748 1.41965 16.5691Z" fill="#DA6551"/>
</svg>
