<svg width="512" height="512" viewBox="0 0 512 512" fill="none" xmlns="http://www.w3.org/2000/svg">
<path d="M416 512H96C42.976 512 0 469.024 0 416V96C0 42.976 42.976 0 96 0H416C469.024 0 512 42.976 512 96V416C512 469.024 469.024 512 416 512Z" fill="#E9E7E7"/>
<path d="M138.01 126.001H137.981C134.766 126.001 131.741 127.256 129.457 129.536C127.148 131.842 125.876 134.911 125.876 138.179V320.789C125.876 327.486 131.34 332.947 138.058 332.965C166.378 333.032 213.824 338.94 246.556 373.226V182.119C246.556 179.849 245.977 177.716 244.883 175.952C218.019 132.647 166.394 126.068 138.01 126.001Z" fill="#DA6551"/>
<path d="M386.123 320.789V138.178C386.123 134.91 384.851 131.84 382.541 129.535C380.258 127.255 377.231 126 374.018 126H373.989C345.606 126.068 293.981 132.647 267.115 175.952C266.022 177.716 265.444 179.849 265.444 182.119V373.225C298.176 338.939 345.623 333.031 373.942 332.964C380.658 332.946 386.123 327.484 386.123 320.789Z" fill="#DA6551"/>
<path d="M413.836 168.114H405.013V320.789C405.013 337.887 391.097 351.828 373.989 351.871C349.968 351.928 310.361 356.63 282.31 383.203C330.824 371.314 381.966 379.042 411.113 385.69C414.751 386.52 418.512 385.663 421.427 383.338C424.333 381.017 426 377.549 426 373.825V180.29C426.001 173.576 420.542 168.114 413.836 168.114Z" fill="#DA6551"/>
<path d="M106.986 320.789V168.114H98.1645C91.4583 168.114 86 173.576 86 180.29V373.823C86 377.546 87.6668 381.014 90.5723 383.334C93.4858 385.659 97.243 386.519 100.888 385.688C130.034 379.038 181.178 371.31 229.689 383.2C201.64 356.627 162.032 351.927 138.011 351.87C120.905 351.828 106.986 337.887 106.986 320.789Z" fill="#DA6551"/>
</svg>
