<svg width="20" height="18" viewBox="0 0 20 18" fill="none" xmlns="http://www.w3.org/2000/svg">
<path d="M2.57614 1.89632C3.47504 0.976994 4.68649 0.476715 5.93686 0.500834L5.93686 0.500988L5.94927 0.500919C6.63256 0.497139 7.33794 0.785579 8.02924 1.26182C8.71731 1.73583 9.35334 2.36983 9.88693 2.99213L10.2665 3.4348L10.6461 2.99213C11.1797 2.36983 11.8157 1.73583 12.5038 1.26182C13.1951 0.785579 13.9005 0.497139 14.5837 0.500919L14.5837 0.501073L14.5961 0.500834C15.8465 0.476715 17.058 0.976998 17.9569 1.89631C18.8564 2.81635 19.3667 4.07887 19.3665 5.40086V5.40093C19.3665 7.88335 17.946 10.1132 16.0066 12.1661C15.0423 13.1868 13.9669 14.146 12.9073 15.056C12.604 15.3165 12.3008 15.5739 12.0018 15.8277C11.3951 16.3428 10.8057 16.8431 10.2682 17.3243C9.70637 16.8168 9.08789 16.29 8.45169 15.7482C8.17977 15.5166 7.9046 15.2822 7.62925 15.0454C6.56952 14.1341 5.49383 13.176 4.52888 12.157C2.58838 10.1078 1.1665 7.88486 1.1665 5.40093V5.40084C1.16629 4.07887 1.67655 2.81637 2.57614 1.89632ZM2.57614 1.89632L2.21864 1.54676M2.57614 1.89632L2.21864 1.54676M2.21864 1.54676C3.21169 0.531137 4.55506 -0.0259131 5.9465 0.000926855L0.666504 5.40093C0.666264 3.95127 1.2256 2.56238 2.21864 1.54676Z" stroke="#DA6551"/>
</svg>
