<svg width="28" height="21" viewBox="0 0 28 21" fill="none" xmlns="http://www.w3.org/2000/svg">
<path d="M4.28317 9.71846e-05H4.28081C4.01599 9.71846e-05 3.76691 0.10144 3.57882 0.285614C3.38866 0.471822 3.28393 0.719772 3.28393 0.983727V15.733C3.28393 16.2738 3.7339 16.715 4.28713 16.7164C6.61934 16.7218 10.5267 17.199 13.2223 19.9682V4.53266C13.2223 4.34931 13.1745 4.17708 13.0845 4.03455C10.8722 0.536891 6.62066 0.00546466 4.28317 9.71846e-05Z" fill="#DA6551"/>
<path d="M24.716 15.733V0.983626C24.716 0.719672 24.6112 0.471732 24.4211 0.285514C24.233 0.10134 23.9837 0 23.7192 0H23.7168C21.3793 0.00546068 17.1278 0.536881 14.9154 4.03455C14.8254 4.17708 14.7777 4.34931 14.7777 4.53266V19.9681C17.4733 17.1989 21.3807 16.7217 23.7129 16.7163C24.266 16.7149 24.716 16.2737 24.716 15.733Z" fill="#DA6551"/>
<path d="M26.9982 3.4015H26.2717V15.733C26.2717 17.1139 25.1257 18.2399 23.7168 18.2435C21.7385 18.2481 18.4768 18.6278 16.1667 20.7741C20.162 19.8138 24.3736 20.438 26.774 20.975C27.0736 21.042 27.3833 20.9728 27.6234 20.785C27.8628 20.5975 28 20.3174 28 20.0166V4.38493C28.0001 3.84268 27.5506 3.4015 26.9982 3.4015Z" fill="#DA6551"/>
<path d="M1.72828 15.733V3.4015H1.00178C0.449511 3.4015 0 3.84268 0 4.38493V20.0164C0 20.3172 0.137267 20.5973 0.376541 20.7847C0.616475 20.9725 0.925891 21.0419 1.22607 20.9748C3.62635 20.4376 7.83817 19.8135 11.8332 20.7739C9.52326 18.6276 6.26148 18.248 4.28327 18.2434C2.87449 18.2399 1.72828 17.1139 1.72828 15.733Z" fill="#DA6551"/>
</svg>
