<svg width="136" height="16" viewBox="0 0 136 16" fill="none" xmlns="http://www.w3.org/2000/svg">
<path d="M31.5714 0.235988C31.7216 0.18879 31.962 0.141592 32.2924 0.0943955C32.6229 0.0314652 32.9608 0 33.3063 0C33.6368 0 33.9297 0.0235985 34.185 0.0707955C34.4554 0.117994 34.6807 0.212389 34.8609 0.353982C35.0412 0.495575 35.1764 0.692232 35.2665 0.943952C35.3566 1.17994 35.4017 1.49459 35.4017 1.88791V4.20059C35.7772 4.04326 36.1302 3.93314 36.4606 3.87021C36.8061 3.80728 37.1816 3.77581 37.5872 3.77581C38.3081 3.77581 38.9916 3.90954 39.6375 4.17699C40.2833 4.44444 40.8541 4.83776 41.3498 5.35693C41.8455 5.86037 42.236 6.48968 42.5214 7.24484C42.8068 8 42.9495 8.87316 42.9495 9.86431C42.9495 10.8869 42.7993 11.7837 42.4989 12.5546C42.2135 13.3097 41.8079 13.939 41.2822 14.4425C40.7565 14.9459 40.1106 15.3314 39.3446 15.5988C38.5935 15.8505 37.7599 15.9764 36.8436 15.9764C35.8523 15.9764 35.0111 15.8505 34.3202 15.5988C33.6292 15.3628 33.0434 15.0639 32.5628 14.7021C31.9019 14.2144 31.5714 13.5851 31.5714 12.8142V0.235988ZM36.8436 12.8142C37.5346 12.8142 38.0678 12.5703 38.4433 12.0826C38.8339 11.5792 39.0291 10.8397 39.0291 9.86431C39.0291 8.87316 38.8339 8.13373 38.4433 7.64602C38.0528 7.15831 37.5271 6.91445 36.8662 6.91445C36.5658 6.91445 36.3029 6.94592 36.0776 7.00885C35.8673 7.07178 35.6345 7.16617 35.3791 7.29203V12.4366C35.5444 12.5467 35.7396 12.6411 35.9649 12.7198C36.2053 12.7827 36.4982 12.8142 36.8436 12.8142Z" fill="#DA6551"/>
<path d="M56.149 9.86431C56.149 10.8397 56.0063 11.7129 55.7209 12.4838C55.4356 13.2389 55.03 13.8761 54.5043 14.3953C53.9936 14.9145 53.3777 15.3078 52.6568 15.5752C51.9358 15.8427 51.1322 15.9764 50.246 15.9764C49.3597 15.9764 48.5561 15.8348 47.8352 15.5516C47.1142 15.2684 46.4908 14.8673 45.9651 14.3481C45.4544 13.8132 45.0564 13.1681 44.771 12.413C44.4856 11.6578 44.3429 10.8083 44.3429 9.86431C44.3429 8.93609 44.4856 8.09439 44.771 7.33923C45.0564 6.58407 45.4544 5.9469 45.9651 5.42773C46.4908 4.89282 47.1142 4.48378 47.8352 4.20059C48.5561 3.9174 49.3597 3.77581 50.246 3.77581C51.1322 3.77581 51.9358 3.92527 52.6568 4.22419C53.3777 4.50737 53.9936 4.91642 54.5043 5.45133C55.03 5.9705 55.4356 6.60767 55.7209 7.36283C56.0063 8.11799 56.149 8.95182 56.149 9.86431ZM48.2632 9.86431C48.2632 10.824 48.436 11.5634 48.7815 12.0826C49.1419 12.586 49.6376 12.8378 50.2685 12.8378C50.8993 12.8378 51.38 12.5782 51.7105 12.059C52.0559 11.5398 52.2287 10.8083 52.2287 9.86431C52.2287 8.92035 52.0559 8.19666 51.7105 7.69321C51.365 7.17404 50.8768 6.91445 50.246 6.91445C49.6151 6.91445 49.1269 7.17404 48.7815 7.69321C48.436 8.19666 48.2632 8.92035 48.2632 9.86431Z" fill="#DA6551"/>
<path d="M69.3507 9.86431C69.3507 10.8397 69.208 11.7129 68.9226 12.4838C68.6372 13.2389 68.2316 13.8761 67.7059 14.3953C67.1952 14.9145 66.5794 15.3078 65.8584 15.5752C65.1374 15.8427 64.3338 15.9764 63.4476 15.9764C62.5614 15.9764 61.7578 15.8348 61.0368 15.5516C60.3158 15.2684 59.6925 14.8673 59.1667 14.3481C58.656 13.8132 58.258 13.1681 57.9726 12.413C57.6872 11.6578 57.5445 10.8083 57.5445 9.86431C57.5445 8.93609 57.6872 8.09439 57.9726 7.33923C58.258 6.58407 58.656 5.9469 59.1667 5.42773C59.6925 4.89282 60.3158 4.48378 61.0368 4.20059C61.7578 3.9174 62.5614 3.77581 63.4476 3.77581C64.3338 3.77581 65.1374 3.92527 65.8584 4.22419C66.5794 4.50737 67.1952 4.91642 67.7059 5.45133C68.2316 5.9705 68.6372 6.60767 68.9226 7.36283C69.208 8.11799 69.3507 8.95182 69.3507 9.86431ZM61.4649 9.86431C61.4649 10.824 61.6376 11.5634 61.9831 12.0826C62.3436 12.586 62.8393 12.8378 63.4701 12.8378C64.101 12.8378 64.5817 12.5782 64.9121 12.059C65.2576 11.5398 65.4303 10.8083 65.4303 9.86431C65.4303 8.92035 65.2576 8.19666 64.9121 7.69321C64.5666 7.17404 64.0785 6.91445 63.4476 6.91445C62.8167 6.91445 62.3286 7.17404 61.9831 7.69321C61.6376 8.19666 61.4649 8.92035 61.4649 9.86431Z" fill="#DA6551"/>
<path d="M81.9215 13.5221C81.8464 14.2616 81.6361 14.8279 81.2906 15.2212C80.9602 15.6146 80.472 15.8112 79.8261 15.8112C79.3454 15.8112 78.9174 15.6932 78.5418 15.4572C78.1663 15.2055 77.7608 14.7886 77.3252 14.2065L75.0946 11.2802V15.5752C74.9294 15.6067 74.6816 15.646 74.3511 15.6932C74.0357 15.7561 73.7127 15.7876 73.3823 15.7876C73.0518 15.7876 72.7514 15.764 72.481 15.7168C72.2257 15.6696 72.0079 15.5752 71.8277 15.4336C71.6474 15.292 71.5047 15.1032 71.3996 14.8673C71.3094 14.6155 71.2644 14.293 71.2644 13.8997V0.235988C71.4296 0.18879 71.6699 0.141592 71.9854 0.0943955C72.3158 0.0314652 72.6463 0 72.9767 0C73.3072 0 73.6001 0.0235985 73.8554 0.0707955C74.1258 0.117994 74.3511 0.212389 74.5314 0.353982C74.7116 0.495575 74.8468 0.692232 74.9369 0.943952C75.0421 1.17994 75.0946 1.49459 75.0946 1.88791V8.11799L78.9699 3.9646C79.751 3.9646 80.3744 4.14553 80.84 4.50737C81.3206 4.86922 81.561 5.32547 81.561 5.87611C81.561 6.11209 81.5234 6.33235 81.4483 6.53687C81.3732 6.72566 81.2531 6.92232 81.0878 7.12684C80.9376 7.33137 80.7348 7.55162 80.4795 7.78761C80.2392 8.00787 79.9538 8.26745 79.6233 8.56637L78.3165 9.74631L81.9215 13.5221Z" fill="#DA6551"/>
<path d="M92.6905 12.177C92.6905 13.3727 92.2624 14.3088 91.4062 14.9853C90.5501 15.6617 89.2883 16 87.6211 16C86.9902 16 86.4044 15.9528 85.8637 15.8584C85.3229 15.764 84.8573 15.6224 84.4667 15.4336C84.0912 15.2291 83.7908 14.9774 83.5655 14.6785C83.3552 14.3795 83.2501 14.0256 83.2501 13.6165C83.2501 13.2389 83.3252 12.9243 83.4754 12.6726C83.6256 12.4051 83.8058 12.1849 84.0161 12.0118C84.4517 12.2635 84.9474 12.4916 85.5032 12.6962C86.0739 12.885 86.7273 12.9794 87.4633 12.9794C87.929 12.9794 88.282 12.9086 88.5223 12.767C88.7776 12.6254 88.9053 12.4366 88.9053 12.2006C88.9053 11.9803 88.8152 11.8073 88.6349 11.6814C88.4547 11.5556 88.1543 11.4533 87.7337 11.3746L87.0578 11.233C85.751 10.9656 84.7747 10.5487 84.1288 9.9823C83.4979 9.4002 83.1825 8.57424 83.1825 7.50442C83.1825 6.92232 83.3027 6.39528 83.543 5.9233C83.7833 5.45133 84.1213 5.05801 84.5569 4.74336C84.9925 4.42871 85.5107 4.18486 86.1115 4.0118C86.7273 3.83874 87.4033 3.75221 88.1393 3.75221C88.695 3.75221 89.2132 3.79941 89.6939 3.8938C90.1896 3.97247 90.6177 4.09833 90.9781 4.27139C91.3386 4.44444 91.624 4.67257 91.8343 4.95575C92.0446 5.22321 92.1497 5.54572 92.1497 5.9233C92.1497 6.28515 92.0822 6.5998 91.947 6.86726C91.8268 7.11898 91.6691 7.33137 91.4738 7.50442C91.3537 7.42576 91.1734 7.3471 90.9331 7.26844C90.6928 7.17404 90.4299 7.09538 90.1445 7.03245C89.8591 6.95379 89.5662 6.89085 89.2658 6.84366C88.9804 6.79646 88.7176 6.77286 88.4772 6.77286C87.9815 6.77286 87.5985 6.83579 87.3282 6.96165C87.0578 7.07178 86.9226 7.2527 86.9226 7.50442C86.9226 7.67748 86.9977 7.81908 87.1479 7.9292C87.2981 8.03933 87.5835 8.14159 88.0041 8.23599L88.7025 8.40118C90.1445 8.7473 91.1659 9.22714 91.7667 9.84071C92.3826 10.4385 92.6905 11.2173 92.6905 12.177Z" fill="#DA6551"/>
<path d="M98.3725 11.6578C98.3725 12.0669 98.4926 12.3579 98.733 12.531C98.9883 12.704 99.3413 12.7906 99.7919 12.7906C100.017 12.7906 100.25 12.7748 100.49 12.7434C100.731 12.6962 100.941 12.6411 101.121 12.5782C101.256 12.7512 101.369 12.9479 101.459 13.1681C101.564 13.3727 101.617 13.6244 101.617 13.9233C101.617 14.5211 101.399 15.0088 100.964 15.3864C100.543 15.764 99.7919 15.9528 98.7104 15.9528C97.3886 15.9528 96.3672 15.6382 95.6462 15.0088C94.9403 14.3795 94.5873 13.3569 94.5873 11.941V1.84071C94.7525 1.79351 94.9854 1.74631 95.2858 1.69911C95.6012 1.63618 95.9316 1.60472 96.2771 1.60472C96.938 1.60472 97.4487 1.73058 97.8092 1.9823C98.1847 2.21829 98.3725 2.7296 98.3725 3.51622V5.02655H101.324C101.414 5.19961 101.497 5.41986 101.572 5.68731C101.662 5.93904 101.707 6.22222 101.707 6.53687C101.707 7.08751 101.587 7.48869 101.347 7.74041C101.121 7.9764 100.813 8.0944 100.423 8.0944H98.3725V11.6578Z" fill="#DA6551"/>
<path d="M114.764 9.86431C114.764 10.8397 114.622 11.7129 114.336 12.4838C114.051 13.2389 113.645 13.8761 113.12 14.3953C112.609 14.9145 111.993 15.3078 111.272 15.5752C110.551 15.8427 109.747 15.9764 108.861 15.9764C107.975 15.9764 107.171 15.8348 106.45 15.5516C105.729 15.2684 105.106 14.8673 104.58 14.3481C104.07 13.8132 103.672 13.1681 103.386 12.413C103.101 11.6578 102.958 10.8083 102.958 9.86431C102.958 8.93609 103.101 8.09439 103.386 7.33923C103.672 6.58407 104.07 5.9469 104.58 5.42773C105.106 4.89282 105.729 4.48378 106.45 4.20059C107.171 3.9174 107.975 3.77581 108.861 3.77581C109.747 3.77581 110.551 3.92527 111.272 4.22419C111.993 4.50737 112.609 4.91642 113.12 5.45133C113.645 5.9705 114.051 6.60767 114.336 7.36283C114.622 8.11799 114.764 8.95182 114.764 9.86431ZM106.879 9.86431C106.879 10.824 107.051 11.5634 107.397 12.0826C107.757 12.586 108.253 12.8378 108.884 12.8378C109.515 12.8378 109.995 12.5782 110.326 12.059C110.671 11.5398 110.844 10.8083 110.844 9.86431C110.844 8.92035 110.671 8.19666 110.326 7.69321C109.98 7.17404 109.492 6.91445 108.861 6.91445C108.23 6.91445 107.742 7.17404 107.397 7.69321C107.051 8.19666 106.879 8.92035 106.879 9.86431Z" fill="#DA6551"/>
<path d="M120.463 15.5752C120.313 15.6224 120.073 15.6696 119.742 15.7168C119.427 15.764 119.096 15.7876 118.751 15.7876C118.42 15.7876 118.12 15.764 117.85 15.7168C117.594 15.6696 117.377 15.5752 117.196 15.4336C117.016 15.292 116.873 15.1032 116.768 14.8673C116.678 14.6155 116.633 14.293 116.633 13.8997V6.82006C116.633 6.45821 116.693 6.15143 116.813 5.8997C116.948 5.63225 117.136 5.39626 117.377 5.19174C117.617 4.98722 117.91 4.80629 118.255 4.64897C118.616 4.47591 118.999 4.32645 119.404 4.20059C119.81 4.07473 120.23 3.98033 120.666 3.9174C121.102 3.83874 121.537 3.79941 121.973 3.79941C122.694 3.79941 123.265 3.94887 123.685 4.24779C124.106 4.53097 124.316 5.00295 124.316 5.66372C124.316 5.88397 124.286 6.10423 124.226 6.32448C124.166 6.52901 124.091 6.7178 124.001 6.89085C123.685 6.89085 123.362 6.90659 123.032 6.93805C122.701 6.96952 122.378 7.01672 122.063 7.07965C121.747 7.14258 121.447 7.21337 121.162 7.29203C120.891 7.35496 120.659 7.43363 120.463 7.52802V15.5752Z" fill="#DA6551"/>
<path d="M131.269 15.9764C130.382 15.9764 129.556 15.8505 128.79 15.5988C128.039 15.3314 127.378 14.9381 126.807 14.4189C126.252 13.8997 125.809 13.2468 125.478 12.4602C125.163 11.6735 125.005 10.7532 125.005 9.69911C125.005 8.66077 125.163 7.77188 125.478 7.03245C125.809 6.27729 126.237 5.66372 126.762 5.19174C127.288 4.70403 127.889 4.35005 128.565 4.12979C129.241 3.8938 129.932 3.77581 130.638 3.77581C131.434 3.77581 132.155 3.90167 132.801 4.15339C133.462 4.40511 134.025 4.75123 134.49 5.19174C134.971 5.63225 135.339 6.15929 135.594 6.77286C135.865 7.38643 136 8.05506 136 8.77876C136 9.31367 135.857 9.72271 135.572 10.0059C135.287 10.2891 134.888 10.47 134.378 10.5487L128.813 11.4218C128.978 11.941 129.316 12.3343 129.827 12.6018C130.337 12.8535 130.923 12.9794 131.584 12.9794C132.2 12.9794 132.778 12.9007 133.319 12.7434C133.875 12.5703 134.325 12.3736 134.671 12.1534C134.911 12.3107 135.114 12.531 135.279 12.8142C135.444 13.0973 135.527 13.3963 135.527 13.7109C135.527 14.4189 135.211 14.9459 134.581 15.292C134.1 15.5595 133.559 15.7404 132.958 15.8348C132.358 15.9292 131.794 15.9764 131.269 15.9764ZM130.638 6.70206C130.277 6.70206 129.962 6.76499 129.691 6.89085C129.436 7.01672 129.226 7.18191 129.061 7.38643C128.895 7.57522 128.768 7.79548 128.677 8.0472C128.602 8.28319 128.557 8.52704 128.542 8.77876L132.395 8.11799C132.35 7.80334 132.185 7.48869 131.899 7.17404C131.614 6.85939 131.193 6.70206 130.638 6.70206Z" fill="#DA6551"/>
<path d="M2.84815 0.634103H2.84658C2.67049 0.634103 2.50486 0.70152 2.37979 0.824041C2.25334 0.947916 2.18369 1.11286 2.18369 1.28845V11.1003C2.18369 11.4601 2.48292 11.7535 2.85078 11.7544C4.40162 11.7581 6.9999 12.0755 8.79235 13.9177V3.64935C8.79235 3.52738 8.76063 3.4128 8.70076 3.31799C7.2296 0.991198 4.4025 0.637674 2.84815 0.634103Z" fill="#DA6551"/>
<path d="M16.4352 11.1003V1.28839C16.4352 1.11279 16.3656 0.947851 16.2391 0.823976C16.1141 0.701455 15.9483 0.634038 15.7724 0.634038H15.7708C14.2165 0.63767 11.3894 0.991195 9.91818 3.31798C9.85831 3.4128 9.82665 3.52738 9.82665 3.64934V13.9176C11.6191 12.0755 14.2174 11.758 15.7682 11.7544C16.136 11.7535 16.4352 11.46 16.4352 11.1003Z" fill="#DA6551"/>
<path d="M17.9529 2.89685H17.4698V11.1003C17.4698 12.0189 16.7076 12.768 15.7708 12.7703C14.4553 12.7734 12.2864 13.026 10.7503 14.4538C13.407 13.815 16.2076 14.2303 17.8037 14.5875C18.003 14.6321 18.209 14.586 18.3686 14.461C18.5277 14.3364 18.619 14.15 18.619 13.95V3.55108C18.6191 3.19035 18.3202 2.89685 17.9529 2.89685Z" fill="#DA6551"/>
<path d="M1.14924 11.1003V2.89685H0.66615C0.298909 2.89685 0 3.19035 0 3.55108V13.9498C0 14.1499 0.0912775 14.3362 0.250386 14.4608C0.409934 14.5858 0.615684 14.632 0.815291 14.5873C2.41139 14.23 5.2121 13.8148 7.86867 14.4536C6.33263 13.0259 4.16366 12.7733 2.84822 12.7702C1.91144 12.768 1.14924 12.0189 1.14924 11.1003Z" fill="#DA6551"/>
</svg>
